{"asset":{"version":"2.0","generator":"Blockbench 4.12.4 glTF exporter"},"scenes":[{"nodes":[3],"name":"blockbench_export"}],"scene":0,"nodes":[{"rotation":[0,0,-0.7071067811865475,0.7071067811865476],"translation":[0,1.0625,0],"name":"Base","mesh":0},{"name":"sphere","mesh":1},{"rotation":[-0.14644660940672624,0.3535533905932738,0.3535533905932738,0.8535533905932737],"translation":[0,1.4375,0],"name":"Cubes","children":[1]},{"children":[0,2]}],"bufferViews":[{"buffer":0,"byteOffset":0,"byteLength":2148,"target":34962,"byteStride":12},{"buffer":0,"byteOffset":2148,"byteLength":2148,"target":34962,"byteStride":12},{"buffer":0,"byteOffset":4296,"byteLength":1432,"target":34962,"byteStride":8},{"buffer":0,"byteOffset":5728,"byteLength":524,"target":34963},{"buffer":0,"byteOffset":6252,"byteLength":3168,"target":34962,"byteStride":12},{"buffer":0,"byteOffset":9420,"byteLength":3168,"target":34962,"byteStride":12},{"buffer":0,"byteOffset":12588,"byteLength":2112,"target":34962,"byteStride":8},{"buffer":0,"byteOffset":14700,"byteLength":720,"target":34963},{"buffer":0,"byteOffset":15420,"byteLength":20},{"buffer":0,"byteOffset":15440,"byteLength":80},{"buffer":0,"byteOffset":15520,"byteLength":256},{"buffer":0,"byteOffset":15776,"byteLength":768}],"buffers":[{"byteLength":16544,"uri":"data:application/octet-stream;base64,"}],"accessors":[{"bufferView":0,"componentType":5126,"count":179,"max":[1.0625,0.5,0.625],"min":[-0.3133031129837036,-0.5,-0.625],"type":"VEC3"},{"bufferView":1,"componentType":5126,"count":179,"max":[0.7345088720321655,1,1],"min":[-1,-1,-1],"type":"VEC3"},{"bufferView":2,"componentType":5126,"count":179,"max":[0.46875,0.4375],"min":[0,0],"type":"VEC2"},{"bufferView":3,"componentType":5123,"count":261,"max":[178],"min":[0],"type":"SCALAR"},{"bufferView":4,"componentType":5126,"count":264,"max":[0.5,0.5,0.5],"min":[-0.5,-0.5,-0.5],"type":"VEC3"},{"bufferView":5,"componentType":5126,"count":264,"max":[0.9659256339073181,0.9659256339073181,0.9659256339073181],"min":[-0.9659256339073181,-0.9659256339073181,-0.9659256339073181],"type":"VEC3"},{"bufferView":6,"componentType":5126,"count":264,"max":[0.96875,0.4375],"min":[0.5070396661758423,0.12974780797958374],"type":"VEC2"},{"bufferView":7,"componentType":5123,"count":360,"max":[263],"min":[0],"type":"SCALAR"},{"bufferView":8,"componentType":5126,"count":5,"max":[4],"min":[0],"type":"SCALAR"},{"bufferView":9,"componentType":5126,"count":5,"max":[0.8535534143447876,0.8535534143447876,0.8535534143447876,0.8535534143447876],"min":[-0.1464466154575348,-0.1464466154575348,-0.1464466154575348,-0.1464466154575348],"type":"VEC4"},{"bufferView":10,"componentType":5126,"count":64,"max":[4],"min":[0],"type":"SCALAR"},{"bufferView":11,"componentType":5126,"count":64,"max":[0,1.6875,0],"min":[0,1.4375,0],"type":"VEC3"}],"materials":[{"pbrMetallicRoughness":{"metallicFactor":0,"roughnessFactor":1,"baseColorTexture":{"index":0}},"alphaMode":"MASK","alphaCutoff":0.05,"doubleSided":true}],"textures":[{"sampler":0,"source":0,"name":"beacon.png"}],"samplers":[{"magFilter":9728,"minFilter":9728,"wrapS":33071,"wrapT":33071}],"images":[{"mimeType":"image/png","uri":"data:image/png;base64,"}],"meshes":[{"primitives":[{"mode":4,"attributes":{"POSITION":0,"NORMAL":1,"TEXCOORD_0":2},"indices":3,"material":0}]},{"primitives":[{"mode":4,"attributes":{"POSITION":4,"NORMAL":5,"TEXCOORD_0":6},"indices":7,"material":0}]}],"animations":[{"name":"idle'","samplers":[{"input":8,"output":9,"interpolation":"LINEAR"},{"input":10,"output":11,"interpolation":"LINEAR"}],"channels":[{"sampler":0,"target":{"node":2,"path":"rotation"}},{"sampler":1,"target":{"node":2,"path":"translation"}}]}]}